<svg width="218" height="23" viewBox="0 0 218 23" fill="none" xmlns="http://www.w3.org/2000/svg">
<path d="M0.00195312 0.938477H13.9956C16.5715 1.07194 17.9128 2.3999 18.0195 4.92236V18.9961C17.9528 21.5719 16.6182 22.9066 14.0156 23H0.00195312V0.938477ZM14.0156 4.94238H4.00586V18.9961H14.0156V4.94238ZM22.0234 1.01855H26.0273V23H22.0234V1.01855ZM30.0312 4.9624C30.1247 2.37321 31.4593 1.0319 34.0352 0.938477H44.085C46.6608 1.0319 47.9821 2.37321 48.0488 4.9624V6.94434H44.0449V4.94238H34.0352V18.9961H44.0449V14.0312H39.0801V10.0273H48.0488V18.9961C47.9154 21.5186 46.5941 22.8532 44.085 23H34.0352C31.486 22.8665 30.1514 21.5386 30.0312 19.0161V4.9624ZM52.0527 1.01855H56.0566V23H52.0527V1.01855ZM60.0605 0.938477H78.0781V4.94238H71.0713V23H67.0674V4.94238H60.0605V0.938477ZM96.0957 12.9102V4.98242H86.0859V12.9102H96.0957ZM86.0859 16.9141V23H82.082V4.98242C82.1755 2.40658 83.5034 1.07194 86.0659 0.978516H96.0957C98.6715 1.04525 100.006 2.38656 100.1 5.00244V23H96.0957V16.9141H86.0859ZM104.104 0.938477H108.107V18.9961H121.16V23H104.104V0.938477ZM125.164 0.938477H129.168V9.82715L137.096 0.938477H142.061L132.912 11.8491L142.961 23H137.336L130.249 15.2925L129.168 16.2534V23H125.164V0.938477ZM161.199 18.9961V4.94238H151.189V18.9961H161.199ZM147.186 4.92236C147.292 2.35986 148.627 1.0319 151.189 0.938477H161.179C163.715 1.0319 165.056 2.35986 165.203 4.92236V18.9961C165.136 21.5853 163.802 22.9199 161.199 23H151.189C148.574 22.9199 147.239 21.5853 147.186 18.9961V4.92236ZM185.223 0.938477V4.94238H173.211V10.0273H183.221C185.77 10.1475 187.104 11.4688 187.225 13.9912V18.936C187.104 21.4985 185.757 22.8532 183.181 23H169.207V18.9961H183.221V14.0312H173.211C170.648 13.8444 169.314 12.5031 169.207 10.0073V4.92236C169.314 2.38656 170.648 1.05859 173.211 0.938477H185.223ZM195.232 0.938477V10.0273H205.242V0.938477H209.246V23H205.242V14.0312H195.232V23H191.229V0.938477H195.232ZM213.25 1.01855H217.254V23H213.25V1.01855Z" fill="#055D59"/>
</svg>
