<svg width="207" height="28" viewBox="0 0 207 28" fill="none" xmlns="http://www.w3.org/2000/svg">
<path d="M0.490234 0.557617H5.4707V11.6143L15.332 0.557617H21.5078L10.1274 14.1294L22.6284 28H15.6309L6.81543 18.4126L5.4707 19.6079V28H0.490234V0.557617ZM45.3145 23.0195V5.53809H32.8633V23.0195H45.3145ZM27.8828 5.51318C28.0156 2.32568 29.6758 0.673828 32.8633 0.557617H45.2896C48.4438 0.673828 50.1123 2.32568 50.2949 5.51318V23.0195C50.2119 26.2402 48.5518 27.9004 45.3145 28H32.8633C29.6094 27.9004 27.9492 26.2402 27.8828 23.0195V5.51318ZM75.1973 0.557617V5.53809H60.2559V11.8633H72.707C75.8779 12.0127 77.5381 13.6562 77.6875 16.7939V22.9448C77.5381 26.1323 75.8613 27.8174 72.6572 28H55.2754V23.0195H72.707V16.8438H60.2559C57.0684 16.6113 55.4082 14.9429 55.2754 11.8384V5.51318C55.4082 2.35889 57.0684 0.707031 60.2559 0.557617H75.1973ZM87.6484 0.557617V11.8633H100.1V0.557617H105.08V28H100.1V16.8438H87.6484V28H82.668V0.557617H87.6484ZM110.061 0.657227H115.041V28H110.061V0.657227ZM120.021 0.657227H125.002V28H120.021V0.657227ZM129.982 28V0.557617H134.938L147.414 19.2344V0.557617H152.395V28H147.389L134.963 9.17383V28H129.982ZM157.375 0.557617H178.492V5.53809H162.355V13.0586H174.807V18.0391H162.355V28H157.375V0.557617ZM201.104 23.0195V5.53809H188.652V23.0195H201.104ZM183.672 5.51318C183.805 2.32568 185.465 0.673828 188.652 0.557617H201.079C204.233 0.673828 205.901 2.32568 206.084 5.51318V23.0195C206.001 26.2402 204.341 27.9004 201.104 28H188.652C185.398 27.9004 183.738 26.2402 183.672 23.0195V5.51318Z" fill="#055D59"/>
</svg>
