<svg width="66" height="66" viewBox="0 0 66 66" fill="none" xmlns="http://www.w3.org/2000/svg">
<circle cx="33" cy="33" r="33" fill="#D9D9D9"/>
<rect x="23.3004" y="6" width="18.7387" height="5.03267" fill="#055D59"/>
<path d="M47.7677 33.3584C45.0265 29.1181 42.1996 17.9214 41.1288 12.853H24.4247C24.2105 18.2497 20.0523 28.7719 18 33.3584C30.9029 47.3857 30.1814 55.7683 30.9488 61.2293C32.1955 61.4511 34.8571 61.3578 34.8571 61.2293C34.1611 45.5424 47.7141 33.3584 47.7677 33.3584Z" fill="#055D59"/>
<circle cx="32.8609" cy="63.4474" r="1.55263" fill="#055D59"/>
<rect x="32.25" y="33.75" width="1.71325" height="27.6261" fill="white"/>
<path d="M33.7605 23.0771V33.8954C33.7605 34.4012 33.8646 34.7696 34.0728 35.0007C34.2809 35.2317 34.6752 35.4003 35.2556 35.5065L35.1704 35.7313C34.4639 35.6376 33.9308 35.5876 33.5712 35.5814C33.2117 35.5752 32.7448 35.6251 32.1708 35.7313L32.114 35.6376C32.2402 35.4565 32.3033 35.1256 32.3033 34.6448V24.8006C32.3033 23.9201 32.196 23.3269 31.9815 23.0209C31.7734 22.715 31.3255 22.587 30.6379 22.6369L30.6 22.459C31.6409 22.153 32.6281 22 33.5618 22C33.6943 22.3309 33.7605 22.69 33.7605 23.0771ZM40.4032 22.4028L35.3123 27.5637V27.7136L40.7911 33.8767C41.5355 34.701 42.3052 35.2442 43.1 35.5065V35.6751C42.6647 35.6314 42.3367 35.6033 42.1159 35.5908C41.9014 35.5783 41.6239 35.5814 41.2832 35.6001C40.9425 35.6189 40.6366 35.6688 40.3653 35.75L40.2329 35.6751C40.2455 35.5377 40.1666 35.366 39.9963 35.1599L34.0538 28.2943V28.0976L39.1447 22.8992C39.2835 22.7556 39.1636 22.6338 38.7851 22.5339C38.4571 22.4465 38.1069 22.409 37.7348 22.4215L37.678 22.1686C38.7504 22.0312 39.6525 22.0062 40.3843 22.0937C40.441 22.1748 40.4473 22.2779 40.4032 22.4028Z" fill="white"/>
<path d="M32.4395 23.0771V33.8954C32.4395 34.4012 32.3354 34.7696 32.1273 35.0007C31.9191 35.2317 31.5248 35.4003 30.9444 35.5065L31.0296 35.7313C31.7361 35.6376 32.2692 35.5876 32.6288 35.5814C32.9883 35.5752 33.4552 35.6251 34.0292 35.7313L34.086 35.6376C33.9598 35.4565 33.8968 35.1256 33.8968 34.6448V24.8006C33.8968 23.9201 34.004 23.3269 34.2185 23.0209C34.4267 22.715 34.8745 22.587 35.5622 22.6369L35.6 22.459C34.5591 22.153 33.5719 22 32.6382 22C32.5058 22.3309 32.4395 22.69 32.4395 23.0771ZM25.7968 22.4028L30.8877 27.5637V27.7136L25.4089 33.8767C24.6645 34.701 23.8949 35.2442 23.1 35.5065V35.6751C23.5353 35.6314 23.8633 35.6033 24.0841 35.5908C24.2986 35.5783 24.5762 35.5814 24.9168 35.6001C25.2575 35.6189 25.5634 35.6688 25.8347 35.75L25.9672 35.6751C25.9545 35.5377 26.0334 35.366 26.2037 35.1599L32.1462 28.2943V28.0976L27.0553 22.8992C26.9166 22.7556 27.0364 22.6338 27.4149 22.5339C27.743 22.4465 28.0931 22.409 28.4653 22.4215L28.522 22.1686C27.4496 22.0312 26.5475 22.0062 25.8158 22.0937C25.759 22.1748 25.7527 22.2779 25.7968 22.4028Z" fill="white"/>
</svg>
